<svg width="1200" height="700" viewBox="0 0 1200 700" fill="none" xmlns="http://www.w3.org/2000/svg">
  <rect width="1200" height="700" fill="#0A0A0F"/>
  <rect x="80" y="60" width="1040" height="70" rx="14" fill="#12121A" stroke="#2A2A36"/>
  <text x="120" y="104" fill="#E4E4E7" font-family="system-ui, sans-serif" font-size="22" font-weight="700">1% Better</text>
  <rect x="860" y="78" width="120" height="34" rx="10" fill="#1E1E2A" stroke="#2A2A36"/>
  <text x="885" y="101" fill="#A1A1AA" font-family="system-ui, sans-serif" font-size="12" font-weight="600">Demo</text>
  <rect x="990" y="78" width="110" height="34" rx="10" fill="#6366F1"/>
  <text x="1015" y="101" fill="#FFFFFF" font-family="system-ui, sans-serif" font-size="12" font-weight="700">Start Free</text>

  <rect x="80" y="160" width="520" height="220" rx="18" fill="#12121A" stroke="#2A2A36"/>
  <text x="110" y="210" fill="#E4E4E7" font-family="system-ui, sans-serif" font-size="26" font-weight="700">Build habits like an RPG</text>
  <text x="110" y="242" fill="#A1A1AA" font-family="system-ui, sans-serif" font-size="14">Atomic Habits system, quests, streaks, loot</text>
  <rect x="110" y="265" width="160" height="42" rx="12" fill="#6366F1"/>
  <text x="135" y="292" fill="#FFFFFF" font-family="system-ui, sans-serif" font-size="12" font-weight="700">Start Free</text>
  <rect x="280" y="265" width="170" height="42" rx="12" fill="#1E1E2A" stroke="#2A2A36"/>
  <text x="304" y="292" fill="#E4E4E7" font-family="system-ui, sans-serif" font-size="12" font-weight="600">See how it works</text>

  <rect x="640" y="160" width="480" height="220" rx="18" fill="#12121A" stroke="#2A2A36"/>
  <rect x="670" y="190" width="420" height="40" rx="10" fill="#1E1E2A"/>
  <rect x="670" y="245" width="420" height="24" rx="12" fill="#1E1E2A"/>
  <rect x="670" y="285" width="320" height="10" rx="5" fill="#6366F1"/>
  <rect x="670" y="315" width="160" height="10" rx="5" fill="#A855F7"/>

  <rect x="80" y="420" width="330" height="200" rx="16" fill="#12121A" stroke="#2A2A36"/>
  <text x="110" y="460" fill="#E4E4E7" font-family="system-ui, sans-serif" font-size="16" font-weight="600">Daily Quests</text>
  <rect x="110" y="485" width="280" height="16" rx="8" fill="#1E1E2A"/>
  <rect x="110" y="515" width="250" height="16" rx="8" fill="#1E1E2A"/>
  <rect x="110" y="545" width="200" height="16" rx="8" fill="#1E1E2A"/>

  <rect x="435" y="420" width="330" height="200" rx="16" fill="#12121A" stroke="#2A2A36"/>
  <text x="465" y="460" fill="#E4E4E7" font-family="system-ui, sans-serif" font-size="16" font-weight="600">Tracker</text>
  <rect x="465" y="485" width="250" height="120" rx="12" fill="#1E1E2A"/>
  <rect x="475" y="495" width="40" height="40" rx="8" fill="#22C55E" fill-opacity="0.3"/>
  <rect x="525" y="495" width="40" height="40" rx="8" fill="#1E1E2A"/>
  <rect x="575" y="495" width="40" height="40" rx="8" fill="#22C55E" fill-opacity="0.3"/>

  <rect x="790" y="420" width="330" height="200" rx="16" fill="#12121A" stroke="#2A2A36"/>
  <text x="820" y="460" fill="#E4E4E7" font-family="system-ui, sans-serif" font-size="16" font-weight="600">Profile</text>
  <rect x="820" y="485" width="240" height="18" rx="9" fill="#1E1E2A"/>
  <rect x="820" y="515" width="200" height="10" rx="5" fill="#6366F1"/>
  <rect x="820" y="540" width="220" height="12" rx="6" fill="#1E1E2A"/>
</svg>
